<?xml version="1.0" standalone="no"?>
<!DOCTYPE svg PUBLIC "-//W3C//DTD SVG 20010904//EN"
 "http://www.w3.org/TR/2001/REC-SVG-20010904/DTD/svg10.dtd">
<svg version="1.0" xmlns="http://www.w3.org/2000/svg"
 width="512.000000pt" height="512.000000pt" viewBox="0 0 512.000000 512.000000"
 preserveAspectRatio="xMidYMid meet">

<g transform="translate(0.000000,512.000000) scale(0.100000,-0.100000)"
fill="#d81324" stroke="none">
<path d="M2170 3354 c-483 -25 -916 -129 -1308 -315 l-124 -59 -146 -10 c-223
-15 -263 -21 -282 -40 -35 -35 -70 -201 -70 -328 0 -62 -4 -78 -25 -106 -37
-49 -55 -100 -55 -158 1 -102 55 -198 130 -230 75 -33 249 -71 425 -93 l50 -6
0 103 c0 95 2 108 31 168 58 121 146 193 274 226 264 67 518 -151 497 -426
l-6 -78 487 -7 c469 -7 1310 -1 1517 11 l100 6 -3 87 c-6 138 44 248 149 331
76 60 147 84 254 84 80 0 97 -3 157 -31 125 -59 211 -167 238 -297 7 -33 10
-79 6 -103 l-6 -43 48 0 c76 0 414 20 445 26 l27 6 0 189 c0 219 0 219 -88
301 -145 133 -439 237 -862 304 -85 13 -168 24 -185 24 -16 0 -55 14 -85 30
-30 17 -147 77 -260 133 -355 178 -578 254 -825 281 -136 15 -395 25 -505 20z
m95 -156 c8 -48 45 -350 45 -368 0 -13 -18 -14 -132 -7 -114 6 -516 34 -796
54 -45 3 -89 11 -98 17 -8 7 -18 30 -21 52 -12 94 101 155 403 217 175 37 378
61 541 66 51 1 52 1 58 -31z m304 16 c154 -18 352 -65 496 -119 196 -73 502
-248 539 -307 25 -41 9 -41 -545 -13 -294 15 -537 30 -541 34 -7 7 -108 386
-108 407 0 17 -4 17 159 -2z"/>
<path d="M1030 2438 c-77 -30 -169 -123 -198 -201 -29 -77 -30 -186 -1 -262
27 -73 104 -156 177 -192 51 -25 68 -28 157 -28 89 0 106 3 157 28 73 36 150
119 177 192 29 76 28 185 -1 262 -15 42 -38 75 -82 119 -78 78 -143 104 -254
103 -53 0 -94 -7 -132 -21z m258 -141 c23 -15 54 -46 69 -69 25 -37 28 -51 28
-123 0 -72 -3 -86 -28 -123 -15 -23 -46 -54 -69 -69 -37 -25 -51 -28 -123 -28
-72 0 -86 3 -123 28 -65 42 -96 97 -100 176 -6 103 35 177 121 220 62 32 168
26 225 -12z"/>
<path d="M3960 2451 c-170 -52 -283 -235 -250 -405 17 -86 50 -145 114 -204
79 -71 146 -95 256 -90 73 3 94 9 148 38 74 39 125 92 161 169 22 48 26 70 26
146 0 82 -3 97 -33 157 -40 81 -111 149 -188 177 -57 22 -181 28 -234 12z
m231 -156 c135 -95 129 -298 -11 -382 -155 -93 -343 12 -343 192 0 67 23 123
70 167 46 44 90 59 170 55 61 -2 78 -7 114 -32z"/>
</g>
</svg>
